<svg width="178" height="146" viewBox="0 0 178 146" fill="none" xmlns="http://www.w3.org/2000/svg">
<mask id="path-1-inside-1_17_302" fill="white">
<rect width="177.519" height="122.291" rx="3"/>
</mask>
<rect width="177.519" height="122.291" rx="3" stroke="white" stroke-width="8" mask="url(#path-1-inside-1_17_302)"/>
<path d="M3.94482 102.566H175.546" stroke="white" stroke-width="4"/>
<path d="M85.842 17.7794H146.905C147.457 17.7794 147.905 18.2271 147.905 18.7794V60.1177C147.905 60.67 147.457 61.1177 146.905 61.1177H113.808C112.354 61.1177 110.978 61.7448 110.023 62.8403C108.63 64.4389 105.837 67.6033 103.198 70.3602C101.874 71.7431 100.618 72.9918 99.6115 73.8836C99.3682 74.099 99.1489 74.2852 98.9544 74.4424C98.5892 73.7938 98.1741 72.8869 97.7387 71.8115C96.7896 69.4677 95.8623 66.6227 95.2649 64.6933C94.6155 62.5957 92.6776 61.1177 90.4413 61.1177H85.842C85.2898 61.1177 84.842 60.67 84.842 60.1177V18.7794C84.842 18.2271 85.2898 17.7794 85.842 17.7794ZM98.1657 75.0018C98.1506 75.0088 98.1534 75.0062 98.172 74.9988C98.1694 75 98.1673 75.001 98.1657 75.0018ZM99.4487 75.1843C99.487 75.2156 99.4883 75.2248 99.4508 75.1865C99.4501 75.1858 99.4494 75.185 99.4487 75.1843Z" stroke="white" stroke-width="4"/>
<path d="M65.0626 47.3383C65.0626 55.2077 59.5339 61.1178 53.2556 61.1178C46.9773 61.1178 41.4486 55.2077 41.4486 47.3383C41.4486 39.469 46.9773 33.5589 53.2556 33.5589C59.5339 33.5589 65.0626 39.469 65.0626 47.3383Z" stroke="white" stroke-width="4"/>
<path d="M27.614 94.6766C28.2715 86.1294 34.3203 69.035 53.2556 69.035C72.1909 69.035 78.2397 86.1294 78.8972 94.6766" stroke="white" stroke-width="4"/>
<path d="M63.1178 124.263V145.96" stroke="white" stroke-width="4"/>
<path d="M118.346 124.263V145.96" stroke="white" stroke-width="4"/>
<path d="M47.3383 143.987H134.125" stroke="white" stroke-width="4"/>
<circle cx="114.401" cy="39.4486" r="3.94486" fill="white"/>
<circle cx="114.401" cy="39.4486" r="3.94486" fill="white"/>
<circle cx="114.401" cy="39.4486" r="3.94486" fill="white"/>
<circle cx="130.18" cy="39.4486" r="3.94486" fill="white"/>
<circle cx="130.18" cy="39.4486" r="3.94486" fill="white"/>
<circle cx="130.18" cy="39.4486" r="3.94486" fill="white"/>
<circle cx="98.6215" cy="39.4486" r="3.94486" fill="white"/>
<circle cx="98.6215" cy="39.4486" r="3.94486" fill="white"/>
<circle cx="98.6215" cy="39.4486" r="3.94486" fill="white"/>
</svg>
